<?xml version="1.0" encoding="UTF-8" standalone="no"?>
<!DOCTYPE svg PUBLIC "-//W3C//DTD SVG 1.1//EN" "http://www.w3.org/Graphics/SVG/1.1/DTD/svg11.dtd">
<svg width="100%" height="100%" viewBox="0 0 2500 2500" version="1.1" xmlns="http://www.w3.org/2000/svg" xmlns:xlink="http://www.w3.org/1999/xlink" xml:space="preserve" xmlns:serif="http://www.serif.com/" style="fill-rule:evenodd;clip-rule:evenodd;stroke-linejoin:round;stroke-miterlimit:2;">
    <g transform="matrix(2.236434,0,0,2.236434,1250,1250)">
        <g transform="matrix(1,0,0,1,-512,-512)">
            <g transform="matrix(1.539034,0,0,1.654218,-253.867259,3.955413)">
                <path d="M603.164,539.211C596.384,552.499 588.777,567.255 587.232,569.625C584.939,573.143 579.543,584.867 578.684,585.911C574.768,593.315 572.86,591.414 562.58,589.365C550.667,586.991 536.113,582.803 533.834,582.147C527.148,580.291 503.189,571.813 502.174,571.448C501.126,571.005 488.393,565.318 477.526,560.269C476.418,559.755 468.578,555.405 464.279,552.682C459.361,549.567 452.387,544.732 448.015,541.579C444.589,539.109 436.674,532.431 436.674,532.431C435.674,531.765 417.384,517.04 401.567,494.688C399.088,491.69 399.161,491.811 398.573,491.023C398.176,490.422 394.683,485.129 393.493,483.59C392.501,482.282 386.265,474.055 382.203,466.447L380.617,463.829C380.575,463.782 370.934,447.902 362.974,429.52L361.64,426.747C359.9,423.052 359.911,423.059 359.791,422.846C358.329,420.611 342.57,378.054 341.02,373.325C340.438,372.069 340.68,372.099 340.129,370.91C340.069,370.781 340.129,370.91 339.328,369.318C338.012,365.561 332.484,347.974 332.26,347.449L330.091,340.402C328.465,334.938 328.506,335.012 326.52,329.673C326.14,328.449 323.056,318.493 321.883,314.334L320.402,310.244C318.029,303.446 318.628,303.389 316.262,296.544C315.768,294.806 307.396,268.003 305.012,260.95C300.025,244.441 297.237,234.167 295.063,228.145C291.178,218.006 291.878,217.922 287.962,207.695C283.875,195.691 284.084,195.675 282.934,193.777C279.458,183.315 279.456,183.353 279.26,182.652L277.422,178.695C275.901,174.513 275.846,174.679 274.42,170.545L271.902,164.986C271.874,164.942 265.902,151.59 265.889,151.577C265.637,151.328 243.602,115.282 243.602,115.282C243.097,114.774 236.598,106.316 227.691,98.084C227.359,97.778 221.044,92.685 220.816,92.496C210.696,84.107 191.21,74.411 179.391,72.061C178.763,71.936 178.472,71.612 178.472,71.216C357.801,96.14 356.91,199.033 397.511,308.289C448.55,445.633 494.779,482.423 603.164,539.211Z" style="fill:url(#_Linear1);"/>
            </g>
            <g transform="matrix(1.960081,0,0,2.078034,-215.249406,94.072047)">
                <g transform="matrix(1.077143,0,0,1.092041,-9.290455,-5.380621)">
                    <path d="M120.432,17.129C120.432,16.454 121.594,15.494 123.492,15.444C129.009,15.298 167.868,13.355 180.512,14.23C183.502,14.437 189.494,14.623 189.494,14.623C195.501,15.033 195.401,15.058 201.465,15.669L205.52,16.351C216.568,18.254 216.474,18.269 227.446,20.995C227.446,20.995 249.629,27.933 264.319,43.741C264.547,43.986 265.568,44.832 267.263,46.722C267.516,46.953 270.497,50.503 270.497,50.503C286.149,67.058 300.921,103.398 301.058,103.687C302.072,105.583 306.833,117.373 307.316,118.57C336.451,190.329 336.484,190.316 336.544,190.48C338.209,195.066 344.155,206.651 344.155,206.651C344.623,207.194 344.243,207.4 348.138,214.676L349.141,216.678C349.316,216.989 350.242,218.632 351.1,220.687C351.1,220.687 355.795,229.155 356.08,229.734C358.137,233.297 358.132,233.194 360.214,236.672C360.956,237.564 367.098,247.727 369.481,250.513C370.757,252.005 378.993,262.884 382.511,266.49C389.615,273.769 393.219,276.812 394.194,277.802C396.906,280.449 398.932,281.851 404.659,286.284C405.571,286.99 405.575,286.876 406.462,287.553C407.898,288.65 408.019,288.398 409.412,289.632C410.308,290.349 421.05,296.45 423.426,297.65C427.015,299.465 426.988,299.657 432.623,302.235C434.294,302.999 434.352,302.898 439.229,303.851C440.25,304.659 443.227,307.018 453.942,310.821C452.926,312.559 453.438,312.716 452.301,314.407C451.637,316.821 451.115,316.58 438.119,342.307C437.436,343.659 433.913,350.635 430.014,358.276C351.005,316.881 317.307,290.063 280.102,189.944C250.505,110.302 251.155,35.298 120.432,17.129Z" style="fill:url(#_Linear2);"/>
                </g>
                <g transform="matrix(1.077143,0,0,1.092041,-9.290455,-5.380621)">
                    <path d="M581.806,7.775C582.316,6.699 582.314,6.775 582.807,5.663C587.115,-4.044 585.388,8.525 585.409,10.501C585.552,24.145 582.688,52.014 578.648,72.526L577.5,72.58L576.917,72.5L576.303,73.5L576.142,74.5L575.987,75.5L575.783,76.5C548.565,133.484 511.787,131.619 464.138,173.058C421.723,209.946 420.156,255.923 429.877,281.356C438.143,302.981 441.436,300.797 443.704,301.388C448.75,309.757 451.432,306.138 453.5,308.014C454.005,308.472 454.232,309.183 454.736,309.641C454.472,310.034 454.207,310.428 453.942,310.821C443.227,307.018 440.25,304.659 439.229,303.851C438.399,303.037 436.023,301.422 435.733,301.226C421.264,291.391 413.81,277.194 411.813,274.34C411.418,273.826 410.073,272.072 407.89,267.247C406.439,264.216 406.63,264.229 404.979,261.301C402.695,255.925 402.755,255.977 400.949,250.357C400.265,248.362 399.58,246.367 398.895,244.371C398.707,243.427 398.518,242.484 398.329,241.54C397.424,237.958 397.427,238.069 396.681,234.453L396.391,231.517C396.232,230.481 396.073,229.445 395.914,228.409C395.711,227.354 391.173,207.643 396.683,181.53C397.42,177.893 397.254,177.947 398.391,174.467C403.427,157.579 408.695,150.602 411.225,146.352C411.75,145.695 413.681,142.64 413.692,142.624C416.777,137.802 419.285,135.347 419.855,134.789C420.181,134.468 420.508,134.147 420.834,133.827C434.15,118.551 436.947,118.23 446.726,110.889C460.209,99.487 507.142,73.787 509.409,72.384C510.591,71.719 510.534,71.761 511.69,70.973C514.096,69.452 536.478,55.3 541.326,51.282C550.425,43.742 550.584,44.01 551.335,43.315C557.853,37.291 557.366,36.897 563.901,30.832C564.234,30.518 564.567,30.203 564.9,29.888C576.831,15.94 579.446,11.272 580.448,9.481C580.901,8.912 581.353,8.344 581.806,7.775Z" style="fill:url(#_Linear3);"/>
                </g>
                <g transform="matrix(1.077143,0,0,1.092041,-9.290455,-5.380621)">
                    <path d="M578.648,72.526C576.902,81.706 574.084,91.862 573.622,93.527C572.923,95.463 572.924,95.449 572.868,95.618C572.716,96.07 572.82,96.006 572.64,96.543C571.623,100.791 566.514,118.661 559.867,131.673L558.535,134.519C558.26,135.257 557.73,136.68 554.376,143.442C552.195,147.84 552.425,147.833 552.198,148.183C543.496,161.596 543.502,161.474 542.801,162.664C541.966,163.708 541.962,163.694 541.899,163.791C536.774,171.725 536.653,171.525 518.852,193.738C518.226,193.695 518.058,192.543 517.432,192.5C516.97,192.468 516.924,193.295 516.56,193.58C514.884,194.895 514.482,194.281 494.29,208.179C426.241,255.015 447.729,298.224 445.176,307.263C443.996,306.956 440.411,305.939 439.267,304.003C436.718,299.685 433.841,291.727 429.877,281.356C420.156,255.923 421.723,209.946 464.138,173.058C511.787,131.619 548.565,133.484 575.783,76.5L575.987,75.5L576.142,74.5L576.303,73.5L576.917,72.5L577.5,72.58L578.648,72.526Z" style="fill:url(#_Linear4);"/>
                </g>
                <g transform="matrix(1.077143,0,0,1.092041,-9.290455,-5.380621)">
                    <path d="M518.852,193.738C515.451,198.993 515.253,198.772 512.038,204.173C510.901,205.534 510.846,205.382 510.048,207.048C493.871,229.478 471.284,279.164 454.736,309.641C454.057,310.892 453.876,310.891 452.863,310.449C452.322,310.213 451.884,310.468 445.756,307.573C445.419,307.414 445.051,307.245 444.678,307.066C447.231,298.027 426.241,255.015 494.29,208.179C514.482,194.281 514.884,194.895 516.56,193.58C516.924,193.295 516.97,192.468 517.432,192.5C518.058,192.543 518.226,193.695 518.852,193.738Z" style="fill:url(#_Linear5);"/>
                </g>
                <g transform="matrix(1.077143,0,0,1.092041,-9.290455,-5.380621)">
                    <path d="M212.093,165.351C212.678,165.666 213.264,165.981 213.849,166.296L211.465,166.394L212.093,165.351Z" style="fill:none;"/>
                </g>
                <g transform="matrix(1.077143,0,0,1.092041,-9.290455,-5.380621)">
                    <path d="M182.714,73.461C183.473,74.344 183.254,74.406 183.39,75.593C183.045,75.213 182.865,75.865 182.521,75.486C182.412,75.365 182.535,75.339 182.714,73.461Z" style="fill:rgb(55,172,213);fill-opacity:0.09;"/>
                </g>
                <g transform="matrix(1.077143,0,0,1.092041,-9.290455,-5.380621)">
                    <path d="M227.446,20.995C229.082,20.982 229.324,20.553 230.228,21.872C229.301,21.58 228.373,21.288 227.446,20.995Z" style="fill:rgb(34,121,167);fill-opacity:0.15;"/>
                </g>
                <g transform="matrix(1.077143,0,0,1.092041,-9.290455,-5.380621)">
                    <path d="M423.426,297.65C424.894,297.038 424.923,296.881 425.005,296.991C425.334,297.433 425.131,298.137 425.46,298.579C424.31,297.891 424.404,297.942 424.31,297.891C423.873,297.653 423.855,297.885 423.426,297.65Z" style="fill:rgb(92,67,85);fill-opacity:0.22;"/>
                </g>
                <g transform="matrix(1.077143,0,0,1.092041,-9.290455,-5.380621)">
                    <path d="M409.412,289.632C410.059,289.989 410.707,290.346 411.355,290.703C410.233,290.329 410.308,290.349 409.412,289.632Z" style="fill:rgb(77,61,85);fill-opacity:0.42;"/>
                </g>
                <g transform="matrix(1.077143,0,0,1.092041,-9.290455,-5.380621)">
                    <path d="M362.381,232.506C362.305,233.192 362.23,233.878 362.154,234.564C362.23,233.878 362.305,233.192 362.381,232.506Z" style="fill:none;"/>
                </g>
            </g>
        </g>
    </g>
    <defs>
        <linearGradient id="_Linear1" x1="0" y1="0" x2="1" y2="0" gradientUnits="userSpaceOnUse" gradientTransform="matrix(424.692693,0,0,519.991328,178.471795,331.21192)"><stop offset="0" style="stop-color:rgb(86,156,255);stop-opacity:1"/><stop offset="0.53" style="stop-color:rgb(24,78,145);stop-opacity:1"/><stop offset="1" style="stop-color:rgb(0,49,103);stop-opacity:1"/></linearGradient>
        <linearGradient id="_Linear2" x1="0" y1="0" x2="1" y2="0" gradientUnits="userSpaceOnUse" gradientTransform="matrix(333.510232,0,0,344.27199,120.431896,186.140434)"><stop offset="0" style="stop-color:rgb(91,187,255);stop-opacity:1"/><stop offset="0.19" style="stop-color:rgb(53,127,187);stop-opacity:1"/><stop offset="0.4" style="stop-color:rgb(16,69,122);stop-opacity:1"/><stop offset="1" style="stop-color:rgb(0,44,94);stop-opacity:1"/></linearGradient>
        <linearGradient id="_Linear3" x1="0" y1="0" x2="1" y2="0" gradientUnits="userSpaceOnUse" gradientTransform="matrix(191.768885,0,0,308.796214,393.965053,156.423094)"><stop offset="0" style="stop-color:rgb(250,129,44);stop-opacity:1"/><stop offset="1" style="stop-color:rgb(250,179,63);stop-opacity:1"/></linearGradient>
        <linearGradient id="_Linear4" x1="0" y1="0" x2="1" y2="0" gradientUnits="userSpaceOnUse" gradientTransform="matrix(153.676539,0,0,234.762724,424.971062,189.881362)"><stop offset="0" style="stop-color:rgb(231,64,76);stop-opacity:1"/><stop offset="0.5" style="stop-color:rgb(237,92,73);stop-opacity:1"/><stop offset="1" style="stop-color:rgb(255,175,66);stop-opacity:1"/></linearGradient>
        <linearGradient id="_Linear5" x1="0" y1="0" x2="1" y2="0" gradientUnits="userSpaceOnUse" gradientTransform="matrix(75.319254,0,0,118.217992,443.532839,251.60811)"><stop offset="0" style="stop-color:rgb(160,20,109);stop-opacity:0.99"/><stop offset="1" style="stop-color:rgb(132,0,108);stop-opacity:1"/></linearGradient>
    </defs>
</svg>
